<svg xmlns="http://www.w3.org/2000/svg">
    <symbol id="facebook" viewBox="0 0 13 26">
        <title>icon-facebook</title>
        <path fill-rule="evenodd" clip-rule="evenodd" d="M12.089 0.198996C12.089 1.675 12.089 4.32 12.089 4.32C12.089 4.32 9.05196 4.017 8.29096 5.181C7.87496 5.817 8.12196 7.681 8.08496 9.019C9.41096 9.019 10.788 9.019 12.114 9.019C11.774 10.583 11.53 11.643 11.279 12.997C10.132 12.997 8.06296 12.997 8.06296 12.997V25.801C8.06296 25.801 4.26596 25.801 2.48096 25.801C2.48196 21.854 2.47996 17.249 2.48096 13.047C1.61396 13.047 0.972957 13.047 0.105957 13.047C0.105957 11.571 0.105957 10.496 0.105957 9.019C0.946957 9.019 1.61296 9.019 2.45496 9.019C2.57496 6.073 2.61996 3.155 4.08396 1.669C5.72796 -0.0020045 7.29696 0.198996 12.089 0.198996Z" />
    </symbol>

    <symbol id="twitter" viewBox="0 0 26 22">
        <title>icon-twitter</title>
        <path fill-rule="evenodd" clip-rule="evenodd" d="M17.513 0.60099C19.547 0.56499 20.63 1.30599 21.664 2.24799C22.542 2.17299 23.683 1.68299 24.355 1.34099C24.572 1.22299 24.79 1.10299 25.008 0.98399C24.624 2.02099 24.104 2.83299 23.304 3.44999C23.126 3.58599 22.95 3.77099 22.727 3.85799C22.727 3.86199 22.727 3.86699 22.727 3.87099C23.867 3.85999 24.807 3.34499 25.7 3.06599C25.7 3.06999 25.7 3.07499 25.7 3.07899C25.231 3.82399 24.596 4.58099 23.919 5.12299C23.646 5.33999 23.372 5.55699 23.099 5.77399C23.114 6.98099 23.081 8.13299 22.856 9.14699C21.544 15.042 18.068 19.044 12.567 20.759C10.591 21.374 7.39898 21.627 5.13498 21.065C4.01298 20.787 2.99898 20.472 2.04798 20.056C1.51898 19.825 1.02898 19.575 0.560976 19.289C0.406976 19.196 0.253976 19.102 0.0999756 19.009C0.609976 19.024 1.20798 19.165 1.77798 19.072C2.29498 18.989 2.80098 19.011 3.27798 18.907C4.46598 18.646 5.52098 18.301 6.42898 17.769C6.86998 17.511 7.53898 17.209 7.85198 16.837C7.26198 16.847 6.72698 16.71 6.28898 16.556C4.58998 15.956 3.60098 14.853 2.95698 13.196C3.47198 13.253 4.95498 13.387 5.30198 13.094C4.65398 13.058 4.03098 12.683 3.58498 12.404C2.21798 11.549 1.10398 10.115 1.11198 7.90799C1.29198 7.99299 1.47098 8.07799 1.64998 8.16299C1.99398 8.30799 2.34298 8.38499 2.75198 8.46999C2.92498 8.50599 3.27098 8.60699 3.46998 8.53299C3.46098 8.53299 3.45298 8.53299 3.44398 8.53299C3.17998 8.22599 2.74898 8.02099 2.48298 7.68999C1.60598 6.60099 0.784976 4.92399 1.30398 2.92599C1.43598 2.41899 1.64498 1.97199 1.86798 1.55899C1.87698 1.56299 1.88498 1.56699 1.89398 1.57099C1.99598 1.78499 2.22398 1.94199 2.36798 2.12099C2.81598 2.67599 3.36798 3.17499 3.93098 3.61499C5.84898 5.11499 7.57598 6.03699 10.35 6.71899C11.054 6.89299 11.867 7.02499 12.708 7.02599C12.472 6.33899 12.548 5.22599 12.733 4.56099C13.201 2.88699 14.216 1.68199 15.706 1.03499C16.062 0.88099 16.457 0.76799 16.872 0.67699C17.086 0.65199 17.299 0.62599 17.513 0.60099Z" />
    </symbol>

    <symbol id="pinterest" viewBox="0 0 20 26">
        <title>icon-pinterest</title>
        <path fill-rule="evenodd" clip-rule="evenodd" d="M8.15212 16.6592C7.94312 17.4922 7.73213 18.3652 7.51413 19.2192C7.29913 20.0612 7.10913 20.9152 6.79613 21.6892C6.27713 22.9702 5.61813 24.2082 4.75313 25.2102C4.17813 25.8772 4.30013 25.6112 4.12713 25.5752C3.99513 25.5472 3.98413 25.4182 3.95813 25.2302C3.81713 24.2122 3.91313 23.0352 3.96513 21.8912C4.02513 20.5872 4.29913 19.5032 4.55413 18.4202C5.03813 16.3562 5.50013 14.3332 5.98913 12.2562C6.02113 12.1182 6.10913 11.8902 6.07913 11.8112C5.85713 11.2342 5.71313 10.7162 5.65013 10.1102C5.57713 9.41522 5.63313 8.76622 5.78913 8.16722C6.06613 7.10922 6.70213 6.17222 7.68313 5.82922C8.30713 5.61322 8.99813 5.71122 9.41813 5.96122C9.85013 6.22022 10.1471 6.62822 10.2851 7.20722C10.4331 7.82222 10.3241 8.55822 10.2051 9.09822C9.93812 10.3172 9.58712 11.2322 9.26812 12.4082C9.11012 12.9912 8.93112 13.5902 9.07912 14.2202C9.21512 14.7982 9.51612 15.1962 9.92612 15.4952C10.3521 15.8052 10.8561 15.9742 11.5511 15.9502C12.7791 15.9072 13.6321 15.1222 14.2021 14.3822C15.1151 13.1972 15.6671 11.5982 15.8771 9.69622C15.9441 9.08222 15.9941 8.37722 15.9471 7.68222C15.8591 6.39822 15.4581 5.36522 14.8201 4.56522C14.2141 3.80222 13.3541 3.19622 12.3081 2.85422C11.2711 2.51622 9.83612 2.40322 8.56112 2.62122C6.24312 3.01822 4.60913 4.33522 3.64613 6.15422C3.14213 7.10622 2.80913 8.20122 2.80913 9.56422C2.80913 10.6152 3.06813 11.4292 3.48713 12.0642C3.62013 12.2652 3.81513 12.4312 3.94513 12.6612C4.13013 12.9872 3.91713 13.4722 3.82613 13.8252C3.71613 14.2502 3.70413 14.8372 3.20813 14.8472C3.00213 14.8512 2.74413 14.7012 2.57013 14.6042C1.26513 13.8832 0.473125 12.5712 0.148125 10.8702C-0.0498748 9.83622 -0.0488748 8.63122 0.148125 7.63222C0.338125 6.66522 0.692125 5.77422 1.08513 5.05122C1.89913 3.54822 3.09213 2.34622 4.54413 1.48822C5.66013 0.828219 6.91913 0.365219 8.45113 0.142219C8.95913 0.0682191 9.48512 0.0372191 10.0561 0.0102191C11.7241 -0.0677809 13.2401 0.310219 14.3821 0.820219C15.5871 1.35922 16.5491 2.07622 17.3621 2.96622C18.2001 3.88122 18.8101 4.94522 19.1961 6.27522C19.3981 6.96722 19.5941 7.70722 19.5941 8.56222C19.5941 9.42022 19.4131 10.1752 19.2861 10.9302C18.8121 13.7582 17.4671 16.0712 15.4481 17.3882C14.9591 17.7062 14.3671 18.0012 13.6941 18.1972C13.0271 18.3912 12.2661 18.5372 11.4511 18.4802C10.6601 18.4262 10.0121 18.2112 9.46812 17.9032C8.92812 17.5982 8.47412 17.2242 8.15212 16.6592Z" />
    </symbol>

    <symbol id="instagram" viewBox="0 0 26 26">
        <title>icon-instagram</title>
        <path fill-rule="evenodd" clip-rule="evenodd" d="M22.7001 25.8H3.50005C1.73305 25.8 0.300049 24.367 0.300049 22.599V3.40001C0.300049 1.63201 1.73305 0.199005 3.50005 0.199005H22.7001C24.4671 0.199005 25.9 1.63201 25.9 3.40001V22.599C25.9 24.367 24.4671 25.8 22.7001 25.8ZM13.1 8.039C11.104 8.039 9.38905 9.221 8.60205 10.919H8.59705C8.58905 10.937 8.58305 10.956 8.57505 10.974C8.52805 11.079 8.48705 11.187 8.44705 11.295C8.42805 11.348 8.40705 11.399 8.39005 11.451C8.35305 11.563 8.32305 11.676 8.29505 11.791C8.28105 11.844 8.26505 11.897 8.25305 11.951C8.22705 12.072 8.20905 12.195 8.19205 12.319C8.18505 12.369 8.17505 12.418 8.16905 12.469C8.15105 12.643 8.14005 12.82 8.14005 13C8.14005 15.739 10.361 17.959 13.1 17.959C15.839 17.959 18.06 15.739 18.06 13C18.06 12.82 18.049 12.643 18.031 12.469C18.025 12.418 18.015 12.369 18.008 12.319C17.991 12.195 17.9731 12.072 17.9471 11.951C17.9351 11.897 17.9191 11.844 17.9051 11.791C17.8771 11.676 17.847 11.563 17.81 11.451C17.793 11.399 17.772 11.348 17.753 11.295C17.713 11.187 17.672 11.079 17.625 10.974C17.617 10.956 17.6111 10.937 17.6031 10.919H17.598C16.811 9.221 15.096 8.039 13.1 8.039ZM23.0201 4.35901C23.0201 3.65201 22.447 3.08001 21.74 3.08001H19.18C18.473 3.08001 17.9 3.65201 17.9 4.35901V6.92001C17.9 7.62701 18.473 8.2 19.18 8.2H21.74C22.447 8.2 23.0201 7.62701 23.0201 6.92001V4.35901ZM23.0201 10.919H20.66C20.842 11.582 20.9401 12.28 20.9401 13C20.9401 17.33 17.43 20.839 13.1 20.839C8.77005 20.839 5.26005 17.33 5.26005 13C5.26005 12.28 5.35805 11.582 5.54005 10.919H3.18005V21.639C3.18005 22.347 3.75305 22.92 4.46005 22.92H21.74C22.447 22.92 23.0201 22.347 23.0201 21.639V10.919Z" />
    </symbol>

    <symbol id="basket" viewBox="0 0 18 15">
        <path fill-rule="evenodd" clip-rule="evenodd" d="M17.726 3.66301H17.727L15.252 9.16301C15.13 9.43401 14.866 9.62701 14.555 9.64801L7.42701 10.123L7.83901 11.299H15.6C16.511 11.299 17.25 12.038 17.25 12.95C17.25 13.861 16.511 14.6 15.6 14.6C14.689 14.6 13.95 13.861 13.95 12.95H6.25001C6.25001 13.861 5.51101 14.6 4.60001 14.6C3.68901 14.6 2.95001 13.861 2.95001 12.95C2.95001 12.038 3.68901 11.299 4.60001 11.299H6.09101L2.91501 2.22501H1.02501C0.569012 2.22501 0.200012 1.85501 0.200012 1.40001C0.200012 0.944012 0.569012 0.575012 1.02501 0.575012H3.50001C3.86001 0.575012 4.16301 0.807012 4.27601 1.12801L4.27901 1.12701L4.75901 2.50001H16.975C17.431 2.50001 17.8 2.86901 17.8 3.32501C17.8 3.44501 17.773 3.55901 17.726 3.66301ZM5.33701 4.15001L6.86201 8.50701L13.951 8.03401L15.699 4.15001H5.33701Z" />
    </symbol>

    <symbol id="loupe" viewBox="0 0 18 18">
        <path fill-rule="evenodd" clip-rule="evenodd" d="M17.317 14.983C17.615 15.281 17.8 15.694 17.8 16.15C17.8 17.061 17.061 17.8 16.15 17.8C15.694 17.8 15.282 17.615 14.983 17.316L10.147 12.481C9.16501 13.061 8.02301 13.4 6.80001 13.4C3.15501 13.4 0.200012 10.445 0.200012 6.80001C0.200012 3.15501 3.15501 0.200012 6.80001 0.200012C10.445 0.200012 13.4 3.15501 13.4 6.80001C13.4 8.02301 13.061 9.16501 12.481 10.147L17.317 14.983ZM6.80001 1.84901C4.06601 1.84901 1.85001 4.06601 1.85001 6.80001C1.85001 9.53401 4.06601 11.75 6.80001 11.75C9.53401 11.75 11.75 9.53401 11.75 6.80001C11.75 4.06601 9.53401 1.84901 6.80001 1.84901Z" />
    </symbol>
</svg>