<svg width="18" height="15" viewBox="0 0 18 15" fill="none" xmlns="http://www.w3.org/2000/svg">
<path fill-rule="evenodd" clip-rule="evenodd" d="M17.526 3.088H17.527L15.052 8.588C14.93 8.859 14.666 9.052 14.355 9.073L7.227 9.54799L7.639 10.724H15.4C16.311 10.724 17.05 11.463 17.05 12.375C17.05 13.286 16.311 14.025 15.4 14.025C14.489 14.025 13.75 13.286 13.75 12.375H6.05C6.05 13.286 5.311 14.025 4.4 14.025C3.489 14.025 2.75 13.286 2.75 12.375C2.75 11.463 3.489 10.724 4.4 10.724H5.891L2.715 1.65H0.824998C0.369 1.65 0 1.28 0 0.824998C0 0.369 0.369 0 0.824998 0H3.3C3.66 0 3.963 0.232 4.076 0.552998L4.079 0.551998L4.559 1.925H16.775C17.231 1.925 17.6 2.294 17.6 2.75C17.6 2.87 17.573 2.984 17.526 3.088ZM5.137 3.575L6.662 7.932L13.751 7.459L15.499 3.575H5.137Z" />
</svg>
