<svg width="26" height="26" viewBox="0 0 26 26" fill="none" xmlns="http://www.w3.org/2000/svg">
<path fill-rule="evenodd" clip-rule="evenodd" d="M22.7001 25.8H3.50005C1.73305 25.8 0.300049 24.367 0.300049 22.599V3.40001C0.300049 1.63201 1.73305 0.199005 3.50005 0.199005H22.7001C24.4671 0.199005 25.9 1.63201 25.9 3.40001V22.599C25.9 24.367 24.4671 25.8 22.7001 25.8ZM13.1 8.039C11.104 8.039 9.38905 9.221 8.60205 10.919H8.59705C8.58905 10.937 8.58305 10.956 8.57505 10.974C8.52805 11.079 8.48705 11.187 8.44705 11.295C8.42805 11.348 8.40705 11.399 8.39005 11.451C8.35305 11.563 8.32305 11.676 8.29505 11.791C8.28105 11.844 8.26505 11.897 8.25305 11.951C8.22705 12.072 8.20905 12.195 8.19205 12.319C8.18505 12.369 8.17505 12.418 8.16905 12.469C8.15105 12.643 8.14005 12.82 8.14005 13C8.14005 15.739 10.361 17.959 13.1 17.959C15.839 17.959 18.06 15.739 18.06 13C18.06 12.82 18.049 12.643 18.031 12.469C18.025 12.418 18.015 12.369 18.008 12.319C17.991 12.195 17.9731 12.072 17.9471 11.951C17.9351 11.897 17.9191 11.844 17.9051 11.791C17.8771 11.676 17.847 11.563 17.81 11.451C17.793 11.399 17.772 11.348 17.753 11.295C17.713 11.187 17.672 11.079 17.625 10.974C17.617 10.956 17.6111 10.937 17.6031 10.919H17.598C16.811 9.221 15.096 8.039 13.1 8.039ZM23.0201 4.35901C23.0201 3.65201 22.447 3.08001 21.74 3.08001H19.18C18.473 3.08001 17.9 3.65201 17.9 4.35901V6.92001C17.9 7.62701 18.473 8.2 19.18 8.2H21.74C22.447 8.2 23.0201 7.62701 23.0201 6.92001V4.35901ZM23.0201 10.919H20.66C20.842 11.582 20.9401 12.28 20.9401 13C20.9401 17.33 17.43 20.839 13.1 20.839C8.77005 20.839 5.26005 17.33 5.26005 13C5.26005 12.28 5.35805 11.582 5.54005 10.919H3.18005V21.639C3.18005 22.347 3.75305 22.92 4.46005 22.92H21.74C22.447 22.92 23.0201 22.347 23.0201 21.639V10.919Z" />
</svg>
