<svg width="20" height="26" viewBox="0 0 20 26" fill="none" xmlns="http://www.w3.org/2000/svg">
<path fill-rule="evenodd" clip-rule="evenodd" d="M8.15212 16.6592C7.94312 17.4922 7.73213 18.3652 7.51413 19.2192C7.29913 20.0612 7.10913 20.9152 6.79613 21.6892C6.27713 22.9702 5.61813 24.2082 4.75313 25.2102C4.17813 25.8772 4.30013 25.6112 4.12713 25.5752C3.99513 25.5472 3.98413 25.4182 3.95813 25.2302C3.81713 24.2122 3.91313 23.0352 3.96513 21.8912C4.02513 20.5872 4.29913 19.5032 4.55413 18.4202C5.03813 16.3562 5.50013 14.3332 5.98913 12.2562C6.02113 12.1182 6.10913 11.8902 6.07913 11.8112C5.85713 11.2342 5.71313 10.7162 5.65013 10.1102C5.57713 9.41522 5.63313 8.76622 5.78913 8.16722C6.06613 7.10922 6.70213 6.17222 7.68313 5.82922C8.30713 5.61322 8.99813 5.71122 9.41813 5.96122C9.85013 6.22022 10.1471 6.62822 10.2851 7.20722C10.4331 7.82222 10.3241 8.55822 10.2051 9.09822C9.93812 10.3172 9.58712 11.2322 9.26812 12.4082C9.11012 12.9912 8.93112 13.5902 9.07912 14.2202C9.21512 14.7982 9.51612 15.1962 9.92612 15.4952C10.3521 15.8052 10.8561 15.9742 11.5511 15.9502C12.7791 15.9072 13.6321 15.1222 14.2021 14.3822C15.1151 13.1972 15.6671 11.5982 15.8771 9.69622C15.9441 9.08222 15.9941 8.37722 15.9471 7.68222C15.8591 6.39822 15.4581 5.36522 14.8201 4.56522C14.2141 3.80222 13.3541 3.19622 12.3081 2.85422C11.2711 2.51622 9.83612 2.40322 8.56112 2.62122C6.24312 3.01822 4.60913 4.33522 3.64613 6.15422C3.14213 7.10622 2.80913 8.20122 2.80913 9.56422C2.80913 10.6152 3.06813 11.4292 3.48713 12.0642C3.62013 12.2652 3.81513 12.4312 3.94513 12.6612C4.13013 12.9872 3.91713 13.4722 3.82613 13.8252C3.71613 14.2502 3.70413 14.8372 3.20813 14.8472C3.00213 14.8512 2.74413 14.7012 2.57013 14.6042C1.26513 13.8832 0.473125 12.5712 0.148125 10.8702C-0.0498747 9.83622 -0.0488747 8.63122 0.148125 7.63222C0.338125 6.66522 0.692125 5.77422 1.08513 5.05122C1.89913 3.54822 3.09213 2.34622 4.54413 1.48822C5.66013 0.828219 6.91913 0.365219 8.45113 0.142219C8.95913 0.0682191 9.48512 0.0372191 10.0561 0.0102191C11.7241 -0.0677809 13.2401 0.310219 14.3821 0.820219C15.5871 1.35922 16.5491 2.07622 17.3621 2.96622C18.2001 3.88122 18.8101 4.94522 19.1961 6.27522C19.3981 6.96722 19.5941 7.70722 19.5941 8.56222C19.5941 9.42022 19.4131 10.1752 19.2861 10.9302C18.8121 13.7582 17.4671 16.0712 15.4481 17.3882C14.9591 17.7062 14.3671 18.0012 13.6941 18.1972C13.0271 18.3912 12.2661 18.5372 11.4511 18.4802C10.6601 18.4262 10.0121 18.2112 9.46812 17.9032C8.92812 17.5982 8.47412 17.2242 8.15212 16.6592Z" />
</svg>
