<svg width="512" height="416" viewBox="0 0 512 416" fill="none" xmlns="http://www.w3.org/2000/svg">
<path d="M459.37 103.634C459.695 108.182 459.695 112.731 459.695 117.279C459.695 255.999 354.112 415.837 161.137 415.837C101.685 415.837 46.457 398.618 0 368.731C8.447 369.705 16.568 370.03 25.34 370.03C74.395 370.03 119.553 353.462 155.614 325.198C109.482 324.223 70.822 294.01 57.502 252.426C64 253.4 70.497 254.05 77.32 254.05C86.741 254.05 96.163 252.75 104.934 250.477C56.853 240.73 20.791 198.497 20.791 147.492V146.193C34.76 153.99 51.005 158.863 68.222 159.512C39.958 140.669 21.441 108.507 21.441 72.121C21.441 52.629 26.638 34.761 35.735 19.167C87.39 82.842 165.035 124.425 252.1 128.974C250.476 121.177 249.501 113.056 249.501 104.934C249.501 47.106 296.283 0 354.435 0C384.648 0 411.937 12.67 431.105 33.137C454.82 28.589 477.561 19.817 497.704 7.797C489.906 32.163 473.338 52.63 451.572 65.624C472.689 63.351 493.156 57.502 511.998 49.381C497.706 70.172 479.837 88.689 459.37 103.634Z" />
</svg>
