<svg width="18" height="18" viewBox="0 0 18 18" fill="none" xmlns="http://www.w3.org/2000/svg">
<path fill-rule="evenodd" clip-rule="evenodd" d="M17.117 14.783C17.415 15.081 17.6 15.494 17.6 15.95C17.6 16.861 16.861 17.6 15.95 17.6C15.494 17.6 15.082 17.415 14.783 17.116L9.94699 12.281C8.965 12.861 7.823 13.2 6.6 13.2C2.955 13.2 0 10.245 0 6.6C0 2.955 2.955 0 6.6 0C10.245 0 13.2 2.955 13.2 6.6C13.2 7.823 12.861 8.965 12.281 9.94699L17.117 14.783ZM6.6 1.649C3.866 1.649 1.65 3.866 1.65 6.6C1.65 9.334 3.866 11.55 6.6 11.55C9.334 11.55 11.55 9.334 11.55 6.6C11.55 3.866 9.334 1.649 6.6 1.649Z" />
</svg>
